<?xml version="1.0" encoding="UTF-8"?>
<svg width="200px" height="200px" viewBox="0 0 200 200" version="1.1" xmlns="http://www.w3.org/2000/svg" xmlns:xlink="http://www.w3.org/1999/xlink">
    <!-- Generator: Sketch 58 (84663) - https://sketch.com -->
    <title>GDC_Token</title>
    <desc>Created with Sketch.</desc>
    <g id="Page-1" stroke="none" stroke-width="1" fill="none" fill-rule="evenodd">
        <g id="GDC_201911" transform="translate(-77.000000, -132.000000)">
            <g id="GDC_Token" transform="translate(77.000000, 132.000000)">
                <g id="GDC">
                    <path d="M100,197.368421 C153.775094,197.368421 197.368421,153.775094 197.368421,100 C197.368421,46.2249059 153.775094,2.63157895 100,2.63157895 C46.2249059,2.63157895 2.63157895,46.2249059 2.63157895,100 C2.63157895,153.775094 46.2249059,197.368421 100,197.368421 Z" id="Path" fill="#FFFFFF" fill-rule="nonzero"></path>
                    <path d="M100,200 C155.228475,200 200,155.228475 200,100 C200,44.771525 155.228475,0 100,0 C44.771525,0 0,44.771525 0,100 C0,155.228475 44.771525,200 100,200 Z M100,192.105263 C49.1316678,192.105263 7.89473684,150.868332 7.89473684,100 C7.89473684,49.1316678 49.1316678,7.89473684 100,7.89473684 C150.868332,7.89473684 192.105263,49.1316678 192.105263,100 C192.105263,150.868332 150.868332,192.105263 100,192.105263 Z" id="Oval" fill="#2C2C2C" fill-rule="nonzero"></path>
                    <circle id="Oval" fill="#2C2C2C" cx="100" cy="100" r="84.2105263"></circle>
                    <path d="M100,34.2105263 C118.167262,34.2105263 134.61463,41.574264 146.520183,53.479817 L132.951796,67.0482037 C124.518696,58.6151037 112.868477,53.3991228 100,53.3991228 C74.2630462,53.3991228 53.3991228,74.2630462 53.3991228,100 C53.3991228,125.736954 74.2630462,146.600877 100,146.600877 C112.868477,146.600877 124.518696,141.384896 132.951796,132.951796 L146.520183,146.520183 C134.61463,158.425736 118.167262,165.789474 100,165.789474 C63.665477,165.789474 34.2105263,136.334523 34.2105263,100 C34.2105263,63.665477 63.665477,34.2105263 100,34.2105263 Z M90.4223815,71.0526316 C91.3786319,71.0526316 92.3142733,71.2979289 93.1154802,71.7586819 L135.879496,96.3511431 C138.162417,97.6639907 138.807348,100.3618 137.319991,102.376868 C136.945271,102.884538 136.454648,103.317597 135.879496,103.648351 L93.1154802,128.240813 C90.8325596,129.55366 87.7761454,128.984398 86.2887881,126.969329 C85.7667896,126.262127 85.4888863,125.436263 85.4888863,124.592208 L85.4888863,75.4072861 C85.4888863,73.0022768 87.6976873,71.0526316 90.4223815,71.0526316 Z" id="Combined-Shape" fill="#FFBE00" fill-rule="nonzero"></path>
                </g>
            </g>
        </g>
    </g>
</svg>