<svg id="_3-square-b" data-name="3-square-b" xmlns="http://www.w3.org/2000/svg" width="65" viewBox="0 0 36.97 35.37"><defs><style>.cls-1{fill:#fff;}</style></defs><title>UXUI Icon</title><path class="cls-1" d="M536.3,698.69A3.3,3.3,0,0,1,533,695.4V666.6a3.3,3.3,0,0,1,3.29-3.29h30.4A3.3,3.3,0,0,1,570,666.6v28.8a3.3,3.3,0,0,1-3.29,3.29Zm30.31-3.38V666.69H536.39v28.62Z" transform="translate(-533.01 -663.31)"/><path class="cls-1" d="M566.7,697.8H536.3a2.41,2.41,0,0,1-2.4-2.4V666.6a2.41,2.41,0,0,1,2.4-2.4h30.4a2.41,2.41,0,0,1,2.4,2.4v28.8A2.41,2.41,0,0,1,566.7,697.8Zm-30.4-32a.8.8,0,0,0-.8.8v28.8a.8.8,0,0,0,.8.8h30.4a.8.8,0,0,0,.8-.8V666.6a.8.8,0,0,0-.8-.8Z" transform="translate(-533.01 -663.31)"/><path class="cls-1" d="M545.9,698.69a1.69,1.69,0,0,1-1.69-1.69V665a1.69,1.69,0,1,1,3.38,0v32A1.69,1.69,0,0,1,545.9,698.69Z" transform="translate(-533.01 -663.31)"/><path class="cls-1" d="M545.9,697.8a.8.8,0,0,1-.8-.8V665a.8.8,0,1,1,1.6,0v32A.8.8,0,0,1,545.9,697.8Z" transform="translate(-533.01 -663.31)"/><path class="cls-1" d="M545.9,682.69a1.69,1.69,0,1,1,0-3.38h22.4a1.69,1.69,0,0,1,0,3.38Z" transform="translate(-533.01 -663.31)"/><path class="cls-1" d="M568.3,681.8H545.9a.8.8,0,0,1,0-1.6h22.4a.8.8,0,0,1,0,1.6Z" transform="translate(-533.01 -663.31)"/></svg>