<svg xmlns="http://www.w3.org/2000/svg" width="85" height="85" viewBox="0 0 85 85">
  <defs>
    <style>
      .cls-1 {
        fill: #fff;
        fill-rule: evenodd;
      }
    </style>
  </defs>
  <path id="HTML_Screen_Icon.svg" data-name="HTML Screen Icon.svg" class="cls-1" d="M8319.6,14532.6h-72.41a3.308,3.308,0,0,0-3.29,3.3v53.7a3.308,3.308,0,0,0,3.29,3.3h23.3v6h-5.97a8.05,8.05,0,0,0,0,16.1h37.76a8.05,8.05,0,0,0,0-16.1h-6.32v-6h23.64a3.308,3.308,0,0,0,3.29-3.3v-53.7a3.308,3.308,0,0,0-3.29-3.3h0Zm-69.12,6.6h65.83v37.6h-65.83v-37.6Zm53.24,67.8a1.407,1.407,0,0,1-1.44,1.4h-37.76a1.409,1.409,0,0,1-1.45-1.4,1.5,1.5,0,0,1,1.45-1.5h37.76a1.493,1.493,0,0,1,1.44,1.5h0Zm-26.65-14.1h12.31v6h-12.31v-6Zm-26.59-9.5h65.83v2.9h-65.83v-2.9Zm17.47-16.3a3.531,3.531,0,0,0,2.19.8,3.03,3.03,0,0,0,2.45-1.1,3.242,3.242,0,0,0-.25-4.6l-3.57-3.2,3.57-3.2a3.358,3.358,0,0,0,.25-4.7,3.25,3.25,0,0,0-4.64-.2l-6.31,5.6a3.242,3.242,0,0,0-1.09,2.5,3.185,3.185,0,0,0,1.09,2.4Zm26.79-.3a3.011,3.011,0,0,0,2.44,1.1,3.58,3.58,0,0,0,2.2-.8l6.31-5.7a3.22,3.22,0,0,0,1.09-2.4,3.276,3.276,0,0,0-1.09-2.5l-6.31-5.6a3.29,3.29,0,1,0-4.39,4.9l3.57,3.2-3.57,3.2A3.224,3.224,0,0,0,8294.74,14566.8Zm-13.25,5.7h0.61a3.283,3.283,0,0,0,3.23-2.7l3.66-19.9a3.278,3.278,0,0,0-2.64-3.8,3.356,3.356,0,0,0-3.83,2.6l-3.66,19.9A3.388,3.388,0,0,0,8281.49,14572.5Z" transform="translate(-8240.91 -14531.3)"/>
</svg>
