<svg id="tablet-phone-vertical" xmlns="http://www.w3.org/2000/svg" width="60" viewBox="0 0 28 32"><defs><style>.cls-1{fill:#fff;}</style></defs><title>MobileDevelopment Icon</title><path class="cls-1" d="M476,171h-9a2,2,0,0,0-2,2v18a2,2,0,0,0,2,2h9a2,2,0,0,0,2-2V173A2,2,0,0,0,476,171Zm-7,1h5v1h-5Zm1,19h-3v-1h3Zm6,0h-3v-1h3Zm0-3h-9V174h9Z" transform="translate(-450 -161)"/><path class="cls-1" d="M453,165h15v4h3v-6a2,2,0,0,0-2-2H452a2,2,0,0,0-2,2V187a2,2,0,0,0,2,2h11v-6H453Zm7.49-3a.49.49,0,1,1-.49.49A.49.49,0,0,1,460.49,162Zm0,22.09a1.45,1.45,0,1,1-1.45,1.45A1.45,1.45,0,0,1,460.53,184.09Z" transform="translate(-450 -161)"/></svg>