<svg xmlns="http://www.w3.org/2000/svg" width="65" height="65.1" viewBox="0 0 65 65.1">
  <defs>
    <style>
      .cls-1 {
        fill: #fff;
        fill-rule: evenodd;
      }
    </style>
  </defs>
  <path id="Pencil_Icon.svg" data-name="Pencil Icon.svg" class="cls-1" d="M7660.06,14579.1l-17.33-17.7c3.96-3.8,7.96-7.6,12.03-11.3a7.12,7.12,0,0,0,1.49-2.4l3.89-10.7a4.965,4.965,0,0,0-.59-4.5,4.756,4.756,0,0,0-5.63-1.7l-10.57,3.9a7.421,7.421,0,0,0-2.39,1.7l-1.5,1.7c-3.1,3.5-6.25,6.9-9.44,10.4l-11.97-12.3a8.729,8.729,0,0,0-2.29-1.5l-11.45-4.5a0.4,0.4,0,0,1-.31-0.1,4.673,4.673,0,0,0-4.37,1.2,4.728,4.728,0,0,0-1.22,4.5,1.666,1.666,0,0,0,.08.3l4.38,11.7a7.391,7.391,0,0,0,1.48,2.3l12.11,12.3c-4.71,4.7-9.48,9.4-14.33,13.9l-3.16,2.9a6.808,6.808,0,0,0-.09,9.5l4.31,4.4a6.337,6.337,0,0,0,4.66,2,6.873,6.873,0,0,0,4.91-2.2l1.33-1.5c4.84-5.5,9.84-10.8,14.93-16.1l17.33,17.6a6.475,6.475,0,0,0,4.7,2h0a6.459,6.459,0,0,0,4.7-2l4.31-4.4a6.731,6.731,0,0,0,0-9.4h0Zm-44.14,2.6-5.75-5.9c10.65-10.1,20.95-20.7,30.73-31.6l6,6.1c-10.73,10-21.1,20.5-30.98,31.4h0Zm29.29-42.1,9.8-3.7-3.64,10a1.071,1.071,0,0,1-.21.4c-0.16.2-.31,0.3-0.46,0.5l-6.31-6.5,0.37-.4a1.181,1.181,0,0,1,.45-0.3h0Zm-41.33-3.9,9.98,3.9h0.08l-6.19,6.4-0.01-.1-3.86-10.2h0Zm7.42,14.1,6.35-6.5,8.78,8.9c-2.09,2.2-4.17,4.4-6.29,6.6l-8.84-9h0Zm-2.34,39.6a1.32,1.32,0,0,1-2.06.1l-4.31-4.4a1.719,1.719,0,0,1,0-2.2l3.06-2.8c0.25-.2.5-0.5,0.75-0.7l6.02,6.1c-0.73.8-1.49,1.7-2.22,2.5l-1.24,1.4h0Zm30.07-24.3,11.31,11.5-6.35,6.5-11.38-11.6c2.12-2.2,4.27-4.3,6.42-6.4h0Zm17.32,19.8-4.31,4.4a1.263,1.263,0,0,1-.99.4,1.229,1.229,0,0,1-.98-0.4l-2.44-2.5,6.36-6.5,2.36,2.5a1.484,1.484,0,0,1,0,2.1h0Z" transform="translate(-7597 -14530)"/>
</svg>
