<svg id="connection-arw-r" xmlns="http://www.w3.org/2000/svg" width="96" height="106" viewBox="0 0 65.7 106"><defs><style>.cls-1{fill:#fff;}</style></defs><title>Strategy Icon</title><path class="cls-1" d="M1105.33,1079.5a8.37,8.37,0,1,1,8.83-8.36A8.61,8.61,0,0,1,1105.33,1079.5Zm0-13.37a5,5,0,1,0,5.3,5A5.17,5.17,0,0,0,1105.33,1066.13Z" transform="translate(-1096.5 -1032)"/><path class="cls-1" d="M1135.35,1128h-9.19c-12.46,0-22.6-9.59-22.6-21.39V1079.5a1.77,1.77,0,0,1,3.54,0v27.08c0,10,8.55,18.05,19.06,18.05h9.19a1.67,1.67,0,1,1,0,3.34Z" transform="translate(-1096.5 -1032)"/><path class="cls-1" d="M1124.76,1138a1.81,1.81,0,0,1-1.35-.59,1.62,1.62,0,0,1,.2-2.36l10.9-8.75-10.9-8.75a1.62,1.62,0,0,1-.2-2.36,1.84,1.84,0,0,1,2.49-.19l12.49,10a1.63,1.63,0,0,1,.62,1.27,1.67,1.67,0,0,1-.62,1.28l-12.49,10A1.8,1.8,0,0,1,1124.76,1138Z" transform="translate(-1096.5 -1032)"/><path class="cls-1" d="M1153.37,1107.21a8.37,8.37,0,1,1,8.83-8.36A8.61,8.61,0,0,1,1153.37,1107.21Zm0-13.37a5,5,0,1,0,5.3,5A5.17,5.17,0,0,0,1153.37,1093.84Z" transform="translate(-1096.5 -1032)"/><path class="cls-1" d="M1155.14,1090.5h-3.53v-6.69h3.53Zm0-13.37h-3.53v-6.69h3.53Zm0-13.38h-3.53v-.34a17,17,0,0,0-1-5.7l3.35-1.06a20.23,20.23,0,0,1,1.16,6.76Zm-7.54-11.41a19.1,19.1,0,0,0-4.75-4.11l1.91-2.81a22.25,22.25,0,0,1,5.62,4.87Zm-10.67-6.49a20.15,20.15,0,0,0-4.39-.48h-2.23V1042h2.23a24.43,24.43,0,0,1,5.2.56Z" transform="translate(-1096.5 -1032)"/><path class="cls-1" d="M1134,1055.4a1.81,1.81,0,0,1-1.15-.4l-12.49-10a1.65,1.65,0,0,1-.62-1.27,1.67,1.67,0,0,1,.62-1.28l12.49-10a1.84,1.84,0,0,1,2.49.19,1.61,1.61,0,0,1-.2,2.35l-10.9,8.76,10.9,8.75a1.62,1.62,0,0,1,.2,2.36A1.79,1.79,0,0,1,1134,1055.4Z" transform="translate(-1096.5 -1032)"/><path class="cls-1" d="M1127.42,1085l-3.77-4.28a1.37,1.37,0,0,1-.41-.91c0-.78.84-1.4,2-1.4a1.9,1.9,0,0,1,1.63.73l2.86,3.73,3-3.73a1.72,1.72,0,0,1,1.61-.73c1,0,1.89.4,1.89,1.34a1.36,1.36,0,0,1-.36.81l-4,4.44,3.92,4.47c.41.47.65.71.65,1,0,1-.92,1.48-2,1.48a1.88,1.88,0,0,1-1.66-.69l-3.17-4-3.4,4.14a2,2,0,0,1-1.54.58c-1.15,0-1.9-.55-1.9-1.28a1.61,1.61,0,0,1,.53-1.14Z" transform="translate(-1096.5 -1032)"/><path class="cls-1" d="M1150.42,1124l-3.77-4.28a1.37,1.37,0,0,1-.41-.91c0-.78.84-1.4,2-1.4a1.9,1.9,0,0,1,1.63.73l2.86,3.73,3-3.73a1.72,1.72,0,0,1,1.61-.73c1,0,1.89.4,1.89,1.34a1.36,1.36,0,0,1-.36.81l-4,4.44,3.92,4.47c.41.47.65.71.65,1,0,1-.92,1.48-2,1.48a1.88,1.88,0,0,1-1.66-.69l-3.17-4-3.4,4.14a2,2,0,0,1-1.54.58c-1.15,0-1.9-.55-1.9-1.28a1.61,1.61,0,0,1,.53-1.14Z" transform="translate(-1096.5 -1032)"/><path class="cls-1" d="M1105.42,1043l-3.77-4.28a1.37,1.37,0,0,1-.41-.91c0-.78.84-1.4,2-1.4a1.9,1.9,0,0,1,1.63.73l2.86,3.73,3-3.73a1.72,1.72,0,0,1,1.61-.73c1,0,1.89.4,1.89,1.34a1.36,1.36,0,0,1-.36.81l-4,4.44,3.92,4.47c.41.47.65.71.65,1,0,1-.92,1.48-2,1.48a1.88,1.88,0,0,1-1.66-.69l-3.17-4-3.4,4.14a2,2,0,0,1-1.54.58c-1.15,0-1.9-.55-1.9-1.28a1.61,1.61,0,0,1,.53-1.14Z" transform="translate(-1096.5 -1032)"/></svg>