<?xml version="1.0" encoding="UTF-8"?>
<svg width="102px" height="39px" viewBox="0 0 102 39" version="1.1" xmlns="http://www.w3.org/2000/svg" xmlns:xlink="http://www.w3.org/1999/xlink">
    <!-- Generator: sketchtool 61 (101010) - https://sketch.com -->
    <title>4153261F-46F9-47B0-A171-EAF0641A20AA</title>
    <desc>Created with sketchtool.</desc>
    <g id="Page-1" stroke="none" stroke-width="1" fill="none" fill-rule="evenodd">
        <g id="MTN-Haus-main-320-menu" transform="translate(-19.000000, -19.000000)" fill="#FFFFFF" fill-rule="nonzero">
            <g id="Group-4" transform="translate(19.000000, 19.000000)">
                <g id="MTNHaus_Logo">
                    <path d="M33.1485551,13.5194798 L27.7984292,0.0700802419 L20.7663775,18.4811609 L14.8596143,12.0397856 L12.4408448,16.2225748 L0.23086434,4.01259442 L0.23086434,38.7583783 L42.6594451,38.7583783 L42.6594451,4.01259442 L33.1485551,13.5194798 Z M40.4068659,9.43880743 L40.4068659,31.7663725 L34.0515891,15.7920819 L40.4068659,9.43880743 Z M39.874256,36.5098037 L3.30037893,36.5098037 L12.9193927,19.8807635 L21.4431524,28.4045232 L32.3236105,17.5240651 L39.874256,36.5098037 Z M15.2720865,15.8161094 L21.5672946,22.6819709 L27.8404773,6.25916675 L31.416572,15.2514629 L21.4411501,25.2268848 L14.0827247,17.8684594 L15.2720865,15.8161094 Z M11.2735082,18.2368812 L2.47543437,33.446296 L2.47543437,9.43880743 L11.2735082,18.2368812 Z" id="Shape"></path>
                    <g id="Group" transform="translate(52.307692, 7.692308)">
                        <path d="M7.10813882,0.0580664861 L9.00430993,7.16420301 C9.35270885,8.68994999 9.41878451,9.03834891 9.6370344,10.4339469 C9.92135996,8.53777575 10.0074585,8.1453264 10.3558575,6.66362986 L12.0998543,0.0600687788 L19.0738395,0.0600687788 L19.0738395,15.4476876 L14.4305229,15.4476876 L14.4305229,6.55550605 C14.4525482,5.42220843 14.4745734,5.13788288 14.560672,3.83038579 C14.2983716,4.98570864 14.2563235,5.20395853 13.9499727,6.31523094 L11.3990519,15.4476876 L7.78090914,15.4476876 L5.40619009,6.79177658 C5.07981639,5.54835286 5.05779117,5.52832994 4.68736704,3.91448208 C4.75344269,4.87358025 4.77546791,5.11385536 4.77546791,5.98485266 L4.77546791,15.443683 L0.154176532,15.443683 L0.154176532,0.0580664861 L7.10813882,0.0580664861 Z M32.7615119,0.0360412673 L32.7615119,3.85040872 L28.8610459,3.85040872 L28.8610459,15.4456853 L24.0014817,15.4456853 L24.0014817,3.85040872 L20.0990134,3.85040872 L20.0990134,0.0360412673 L32.7615119,0.0360412673 Z M39.1428185,0.0580664861 L42.6087871,5.87672885 C43.4597614,7.46855149 43.6980342,7.92507421 44.482933,9.64704587 C44.3527839,8.14332411 44.3307587,7.81695041 44.2867083,6.09497875 L44.2867083,0.0580664861 L48.841924,0.0580664861 L48.841924,15.4456853 L43.6119357,15.4456853 L40.494366,10.1275961 C39.6013435,8.60184912 39.3390432,8.12330118 38.3579198,6.07295353 C38.4660436,7.46855149 38.4880688,7.81695041 38.5100941,9.21254837 L38.5100941,15.4456853 L33.9769036,15.4456853 L33.9769036,0.0580664861 L39.1428185,0.0580664861 Z" id="Combined-Shape"></path>
                    </g>
                    <g id="Group" transform="translate(52.507922, 29.717527)">
                        <path d="M30.96946,0.154176532 L30.96946,6.04492144 C30.96946,6.74171927 30.96946,7.47455837 31.9425742,7.47455837 C32.8115692,7.47455837 32.8355968,6.8678637 32.8456082,6.49143269 C32.8540179,6.26717592 32.8565407,6.16654069 32.8572976,5.92236711 L32.857622,0.154176532 L33.8747866,0.154176532 L33.8747866,5.60041247 C33.8747866,6.59555191 33.8627729,6.99601043 33.6805642,7.40848271 C33.3141447,8.26546396 32.3430328,8.34555566 31.9185467,8.34555566 C31.0495517,8.34555566 30.4208319,8.08325533 30.134504,7.46454691 C29.9843321,7.13229147 29.9555882,6.91090517 29.9525818,5.88472776 L29.9522954,0.154176532 L30.96946,0.154176532 Z M46.9857987,0.0300343894 C47.398271,0.0300343894 48.0950689,0.0981123386 48.4614884,0.692793248 C48.6897498,1.06922426 48.6897498,1.34554064 48.6897498,2.53490246 L47.808741,2.53490246 C47.7867158,1.76802439 47.7867158,1.68793268 47.7626883,1.53976303 C47.7406631,1.39159337 47.6365438,0.887015633 46.9277323,0.887015633 C46.0807625,0.887015633 46.0807625,1.61985473 46.0807625,1.84811609 C46.0807625,2.45481076 46.2970101,2.69508587 46.8696658,3.30178054 L47.8868304,4.36499792 C48.5495893,5.07380951 48.8479309,5.48628179 48.8479309,6.41334328 C48.8479309,8.12930806 47.4983857,8.34555566 46.891691,8.34555566 C46.1148014,8.34555566 45.7023292,8.08325533 45.5421458,7.94509714 C45.0275566,7.54463861 44.9134259,6.93794395 44.9134259,6.33325157 L44.9134259,5.44022906 L45.8745263,5.44022906 L45.8749713,6.06516684 C45.8758612,6.35394193 45.8785309,6.42735933 45.8865401,6.52747396 C45.8985538,6.7337101 45.9666318,7.48857442 46.8596543,7.48857442 C47.1800211,7.48857442 47.876819,7.36242998 47.876819,6.48142123 C47.876819,5.84068759 47.5904911,5.52032077 47.1339684,5.05178429 L46.036712,3.93050042 C45.269834,3.14159713 45.1096505,2.64903314 45.1096505,1.91819633 C45.1096505,1.47168508 45.1096505,0.0300343894 46.9857987,0.0300343894 Z M1.08123802,0.156178825 L1.08123802,3.58810838 L2.92334723,3.58810838 L2.92334723,0.156178825 L3.93050042,0.156178825 L3.93050042,8.23142498 L2.92334723,8.23142498 L2.92334723,4.46711485 L1.08123802,4.46711485 L1.08123802,8.23142498 L0.0740848271,8.23142498 L0.0740848271,0.156178825 L1.08123802,0.156178825 Z M17.4379665,0.156178825 L19.2240115,8.23142498 L18.1708056,8.23142498 L17.8844777,6.67564361 L16.0083295,6.67564361 L15.7340154,8.23142498 L14.6928233,8.23142498 L16.4308133,0.156178825 L17.4379665,0.156178825 Z M16.9253796,1.65389371 L16.1805267,5.80664861 L17.7142829,5.80664861 L16.9253796,1.65389371 Z" id="Combined-Shape"></path>
                    </g>
                </g>
            </g>
        </g>
    </g>
</svg>