<svg display="none" xmlns="http://www.w3.org/2000/svg">
    <symbol id="shopping-cart" viewBox="0 0 20 17">
        <g>
            <path d="M18.73 4.66L18.73 4.66L16.25 10.16L16.25 10.16C16.13 10.43 15.87 10.63 15.55 10.65L15.55 10.65L8.43 11.12L8.84 12.3L16.6 12.3C17.51 12.3 18.25 13.04 18.25 13.95C18.25 14.86 17.51 15.6 16.6 15.6C15.69 15.6 14.95 14.86 14.95 13.95L7.25 13.95C7.25 14.86 6.51 15.6 5.6 15.6C4.69 15.6 3.95 14.86 3.95 13.95C3.95 13.04 4.69 12.3 5.6 12.3L7.09 12.3L3.91 3.22L2.02 3.22C1.57 3.22 1.2 2.86 1.2 2.4C1.2 1.94 1.57 1.57 2.02 1.57L4.5 1.57C4.86 1.57 5.16 1.81 5.28 2.13L5.28 2.13L5.76 3.5L17.97 3.5C18.43 3.5 18.8 3.87 18.8 4.32C18.8 4.45 18.77 4.56 18.73 4.66ZM6.34 5.15L7.86 9.51L14.95 9.03L16.7 5.15L6.34 5.15Z" />
        </g>
    </symbol>
    <symbol id="magnifying-glass" viewBox="0 0 20 20">
        <g>
            <path d="M18.32 15.98C18.62 16.28 18.8 16.69 18.8 17.15C18.8 18.06 18.06 18.8 17.15 18.8C16.69 18.8 16.28 18.61 15.98 18.32L15.98 18.32L11.15 13.48C10.17 14.06 9.02 14.4 7.8 14.4C4.15 14.4 1.2 11.44 1.2 7.8C1.2 4.15 4.15 1.2 7.8 1.2C11.45 1.2 14.4 4.15 14.4 7.8C14.4 9.02 14.06 10.16 13.48 11.15L18.32 15.98L18.32 15.98ZM7.8 2.85C5.07 2.85 2.85 5.07 2.85 7.8C2.85 10.53 5.07 12.75 7.8 12.75C10.53 12.75 12.75 10.53 12.75 7.8C12.75 5.07 10.53 2.85 7.8 2.85Z" />
        </g>
    </symbol>
    <symbol id="alarm" viewBox="0 0 34 33">
        <g>
            <path d="M31.74 10.5C30.16 6.81 27.19 3.84 23.5 2.26C24.5 1.47 25.75 1 27.13 1C30.37 1 33 3.63 33 6.87C33 8.24 32.53 9.5 31.74 10.5ZM31.5 17C31.5 20.85 29.99 24.34 27.54 26.94L29.57 28.97C29.83 29.24 30 29.61 30 30.02C30 30.84 29.34 31.5 28.52 31.5C28.11 31.5 27.74 31.33 27.47 31.07L25.29 28.89C22.94 30.53 20.08 31.5 17 31.5C13.92 31.5 11.07 30.53 8.72 28.9L6.56 31.06C6.29 31.33 5.91 31.5 5.5 31.5C4.67 31.5 4 30.83 4 30C4 29.59 4.17 29.21 4.44 28.94L6.45 26.93C4.01 24.33 2.5 20.85 2.5 17C2.5 8.99 8.99 2.5 17 2.5C25.01 2.5 31.5 8.99 31.5 17ZM17 5.5C10.65 5.5 5.5 10.65 5.5 17C5.5 23.35 10.65 28.5 17 28.5C23.35 28.5 28.5 23.35 28.5 17C28.5 10.65 23.35 5.5 17 5.5ZM23 18.5L17 18.5C16.17 18.5 15.5 17.83 15.5 17L15.5 9C15.5 8.17 16.17 7.5 17 7.5C17.83 7.5 18.5 8.17 18.5 9L18.5 15.5L23 15.5C23.83 15.5 24.5 16.17 24.5 17C24.5 17.83 23.83 18.5 23 18.5ZM2.29 10.71C1.48 9.68 1 8.4 1 7C1 3.69 3.69 1 7 1C8.4 1 9.69 1.48 10.71 2.29C6.93 3.9 3.9 6.93 2.29 10.71Z" />
        </g>
    </symbol>
    <symbol id="line-graph" viewBox="0 0 35 35">
        <g>
            <path d="M31.5 34L2.5 34C1.67 34 1 33.33 1 32.5L1 3.5C1 2.67 1.67 2 2.5 2L31.5 2C32.33 2 33 2.67 33 3.5L33 32.5C33 33.33 32.33 34 31.5 34ZM30 5L4 5L4 31L30 31L30 5ZM6.22 18.24L6.21 18.24L10.21 15.74L10.22 15.74C10.44 15.6 10.71 15.52 11 15.52C11.31 15.52 11.6 15.61 11.84 15.77L11.85 15.77L18.48 20.19L26.11 14.79C26.36 14.61 26.67 14.51 27 14.51C27.83 14.51 28.5 15.18 28.5 16.01C28.5 16.51 28.25 16.95 27.88 17.22L27.88 17.22L19.38 23.22L19.38 23.22C19.13 23.4 18.83 23.51 18.5 23.51C18.18 23.51 17.88 23.4 17.64 23.23L10.98 18.8L7.85 20.75C7.61 20.92 7.31 21.02 7 21.02C6.17 21.02 5.5 20.35 5.5 19.52C5.5 18.98 5.79 18.5 6.22 18.24Z" />
        </g>
    </symbol>
    <symbol id="computer-ok" viewBox="0 0 34 30">
        <g>
            <path d="M31 24L23.5 24L21.5 24L21.5 26.5L23.5 28.5L23.5 29L10.5 29L10.5 28.5L12.5 26.5L12.5 24L10.5 24L3 24C2.17 24 1.5 23.33 1.5 22.5L1.5 2.5C1.5 1.67 2.17 1 3 1L31 1C31.83 1 32.5 1.67 32.5 2.5L32.5 22.5C32.5 23.33 31.83 24 31 24ZM30.5 3L3.5 3L3.5 20L30.5 20L30.5 3ZM14 10C14.41 10 14.79 10.17 15.06 10.44L15.06 10.44L16 11.38L18.94 8.44L18.94 8.44C19.21 8.17 19.59 8 20 8C20.83 8 21.5 8.67 21.5 9.5C21.5 9.91 21.33 10.29 21.06 10.56L21.06 10.56L17.06 14.56L17.06 14.56C16.79 14.83 16.41 15 16 15C15.59 15 15.21 14.83 14.94 14.56L14.94 14.56L12.94 12.56L12.94 12.56C12.67 12.29 12.5 11.91 12.5 11.5C12.5 10.67 13.17 10 14 10Z" />
        </g>
    </symbol>
    <symbol id="book-2" viewBox="0 0 35 35">
        <g>
            <path d="M33.06 26.89L18.59 32.88C18.41 32.96 18.21 33 18 33C17.79 33 17.59 32.96 17.41 32.88L2.94 26.89C2.39 26.67 2 26.13 2 25.5L2 2.5C2 1.67 2.67 1 3.5 1C3.7 1 3.9 1.04 4.07 1.11L4.07 1.11L4.08 1.11C4.08 1.12 4.08 1.12 4.09 1.12L18 6.88L31.91 1.12C31.91 1.12 31.92 1.12 31.92 1.11L31.93 1.11L31.93 1.11C32.1 1.04 32.3 1 32.5 1C33.33 1 34 1.67 34 2.5L34 25.5C34 26.13 33.61 26.67 33.06 26.89ZM16.5 9.5L5 4.74L5 24.5L16.5 29.26L16.5 9.5ZM31 4.74L19.5 9.5L19.5 29.26L31 24.5L31 4.74ZM21.88 11.63L27.38 9.13L27.38 9.13C27.57 9.05 27.78 9 28 9C28.83 9 29.5 9.67 29.5 10.5C29.5 11.11 29.14 11.63 28.62 11.87L28.62 11.87L23.12 14.37L23.12 14.37C22.93 14.45 22.72 14.5 22.5 14.5C21.67 14.5 21 13.83 21 13C21 12.39 21.36 11.87 21.88 11.63ZM21.88 17.13L21.88 17.13L27.38 14.63L27.38 14.63C27.57 14.55 27.78 14.5 28 14.5C28.83 14.5 29.5 15.17 29.5 16C29.5 16.61 29.14 17.13 28.62 17.37L23.12 19.87L23.12 19.86C22.93 19.95 22.72 20 22.5 20C21.67 20 21 19.33 21 18.5C21 17.89 21.36 17.37 21.88 17.13ZM21.88 22.63L21.88 22.63L27.38 20.13L27.38 20.13C27.57 20.05 27.78 20 28 20C28.83 20 29.5 20.67 29.5 21.5C29.5 22.11 29.14 22.63 28.62 22.87L28.62 22.87L23.12 25.37L23.12 25.37C22.93 25.45 22.72 25.5 22.5 25.5C21.67 25.5 21 24.83 21 24C21 23.39 21.36 22.87 21.88 22.63ZM8 9C8.22 9 8.43 9.05 8.62 9.13L8.62 9.13L14.12 11.63L14.12 11.63C14.64 11.87 15 12.39 15 13C15 13.83 14.33 14.5 13.5 14.5C13.28 14.5 13.07 14.45 12.88 14.37L12.88 14.37L7.38 11.87L7.38 11.87C6.86 11.63 6.5 11.11 6.5 10.5C6.5 9.67 7.17 9 8 9ZM8 14.5C8.22 14.5 8.43 14.55 8.62 14.63L8.62 14.63L14.12 17.13L14.12 17.13C14.64 17.37 15 17.89 15 18.5C15 19.33 14.33 20 13.5 20C13.28 20 13.07 19.95 12.88 19.86L12.88 19.87L7.38 17.37L7.38 17.37C6.86 17.13 6.5 16.61 6.5 16C6.5 15.17 7.17 14.5 8 14.5ZM8 20C8.22 20 8.43 20.05 8.62 20.13L8.62 20.13L14.12 22.63L14.12 22.63C14.64 22.87 15 23.39 15 24C15 24.83 14.33 25.5 13.5 25.5C13.28 25.5 13.07 25.45 12.88 25.37L12.88 25.37L7.38 22.87L7.38 22.87C6.86 22.63 6.5 22.11 6.5 21.5C6.5 20.67 7.17 20 8 20Z" />
        </g>
    </symbol>
    <symbol id="home" viewBox="0 0 35 33">
        <g>
            <path d="M34 17.5C34 18.33 33.33 19 32.5 19C32.1 19 31.75 18.84 31.48 18.59L31.48 18.6L18.04 5.16L18.04 5.16L18 5.12L18 5.12L4.55 18.57L4.55 18.57C4.28 18.83 3.91 19 3.5 19C2.67 19 2 18.33 2 17.5C2 17.07 2.18 16.69 2.46 16.42L16.92 1.96C17.19 1.68 17.58 1.5 18 1.5L18 1.5L18 1.5C18 1.5 18 1.5 18 1.5C18.03 1.5 18.05 1.5 18.08 1.5C18.08 1.5 18.09 1.5 18.09 1.5C18.11 1.5 18.14 1.51 18.16 1.51C18.16 1.51 18.16 1.51 18.16 1.51C18.53 1.55 18.86 1.72 19.1 1.98L19.1 1.98L25 7.88L25 6.5C25 5.67 25.67 5 26.5 5C27.33 5 28 5.67 28 6.5L28 10.88L33.6 16.48L33.59 16.48C33.84 16.75 34 17.1 34 17.5ZM31 20L31 24.5L31 26.5L31 30.5C31 31.33 30.33 32 29.5 32L26.5 32L26.5 20L20.5 20L20.5 32L6.5 32C5.67 32 5 31.33 5 30.5L5 26.5L5 24.5L5 20L18 7L31 20ZM15.5 20L9.5 20L9.5 26L15.5 26L15.5 20Z" />
        </g>
    </symbol>
    <symbol id="image" viewBox="0 0 36 35">
        <g>
            <path d="M32.5 33L3.5 33C2.67 33 2 32.33 2 31.5L2 2.5C2 1.67 2.67 1 3.5 1L32.5 1C33.33 1 34 1.67 34 2.5L34 31.5C34 32.33 33.33 33 32.5 33ZM31 4L5 4L5 30L31 30L31 4ZM8.5 5.5L14 5.5L14 5.5C14.83 5.5 15.5 6.17 15.5 7C15.5 7.83 14.83 8.5 14 8.5L14 8.5L9.5 8.5L9.5 13L9.5 13C9.5 13.83 8.83 14.5 8 14.5C7.17 14.5 6.5 13.83 6.5 13L6.5 13L6.5 7.5L6.5 7.5L6.5 5.5L8.5 5.5L8.5 5.5ZM6.5 21L6.5 21C6.5 20.17 7.17 19.5 8 19.5C8.83 19.5 9.5 20.17 9.5 21L9.5 21L9.5 25.5L14 25.5L14 25.5C14.83 25.5 15.5 26.17 15.5 27C15.5 27.83 14.83 28.5 14 28.5L14 28.5L8.5 28.5L8.5 28.5L6.5 28.5L6.5 26.5L6.5 26.5L6.5 21ZM22 5.5L22 5.5L27.5 5.5L27.5 5.5L29.5 5.5L29.5 7.5L29.5 7.5L29.5 13L29.5 13C29.5 13.83 28.83 14.5 28 14.5C27.17 14.5 26.5 13.83 26.5 13L26.5 13L26.5 8.5L22 8.5L22 8.5C21.17 8.5 20.5 7.83 20.5 7C20.5 6.17 21.17 5.5 22 5.5ZM22 25.5L22 25.5L26.5 25.5L26.5 21L26.5 21C26.5 20.17 27.17 19.5 28 19.5C28.83 19.5 29.5 20.17 29.5 21L29.5 21L29.5 26.5L29.5 26.5L29.5 28.5L27.5 28.5L27.5 28.5L22 28.5L22 28.5C21.17 28.5 20.5 27.83 20.5 27C20.5 26.17 21.17 25.5 22 25.5Z" />
        </g>
    </symbol>
    <symbol id="facebook" viewBox="0 0 96.124 96.123">
        <g>
            <path d="M72.089,0.02L59.624,0C45.62,0,36.57,9.285,36.57,23.656v10.907H24.037c-1.083,0-1.96,0.878-1.96,1.961v15.803
		c0,1.083,0.878,1.96,1.96,1.96h12.533v39.876c0,1.083,0.877,1.96,1.96,1.96h16.352c1.083,0,1.96-0.878,1.96-1.96V54.287h14.654
		c1.083,0,1.96-0.877,1.96-1.96l0.006-15.803c0-0.52-0.207-1.018-0.574-1.386c-0.367-0.368-0.867-0.575-1.387-0.575H56.842v-9.246
		c0-4.444,1.059-6.7,6.848-6.7l8.397-0.003c1.082,0,1.959-0.878,1.959-1.96V1.98C74.046,0.899,73.17,0.022,72.089,0.02z" />
        </g>
    </symbol>
    <symbol id="twitter" viewBox="0 0 28 24">
        <g>
            <path d="M18.51 1.6C20.55 1.56 21.63 2.31 22.66 3.25C23.54 3.17 24.68 2.68 25.35 2.34C25.57 2.22 25.79 2.1 26.01 1.98C25.62 3.02 25.1 3.83 24.3 4.45C24.13 4.59 23.95 4.77 23.73 4.86C23.73 4.86 23.73 4.87 23.73 4.87C24.87 4.86 25.81 4.35 26.7 4.07C26.7 4.07 26.7 4.07 26.7 4.08C26.23 4.82 25.6 5.58 24.92 6.12C24.65 6.34 24.37 6.56 24.1 6.77C24.11 7.98 24.08 9.13 23.86 10.15C22.54 16.04 19.07 20.04 13.57 21.76C11.59 22.37 8.4 22.63 6.14 22.07C5.01 21.79 4 21.47 3.05 21.06C2.52 20.83 2.03 20.57 1.56 20.29C1.41 20.2 1.25 20.1 1.1 20.01C1.61 20.02 2.21 20.16 2.78 20.07C3.29 19.99 3.8 20.01 4.28 19.91C5.47 19.65 6.52 19.3 7.43 18.77C7.87 18.51 8.54 18.21 8.85 17.84C8.26 17.85 7.73 17.71 7.29 17.56C5.59 16.96 4.6 15.85 3.96 14.2C4.47 14.25 5.96 14.39 6.3 14.09C5.65 14.06 5.03 13.68 4.59 13.4C3.22 12.55 2.1 11.12 2.11 8.91C2.29 8.99 2.47 9.08 2.65 9.16C2.99 9.31 3.34 9.39 3.75 9.47C3.93 9.51 4.27 9.61 4.47 9.53C4.46 9.53 4.45 9.53 4.44 9.53C4.18 9.23 3.75 9.02 3.48 8.69C2.61 7.6 1.78 5.92 2.3 3.93C2.44 3.42 2.65 2.97 2.87 2.56C2.88 2.56 2.89 2.57 2.89 2.57C3 2.79 3.22 2.94 3.37 3.12C3.82 3.68 4.37 4.18 4.93 4.62C6.85 6.12 8.58 7.04 11.35 7.72C12.05 7.89 12.87 8.03 13.71 8.03C13.47 7.34 13.55 6.23 13.73 5.56C14.2 3.89 15.22 2.68 16.71 2.04C17.06 1.88 17.46 1.77 17.87 1.68C18.09 1.65 18.3 1.63 18.51 1.6Z" />
        </g>
    </symbol>
    <symbol id="pinterest" viewBox="0 0 23 29">
        <g>
            <path d="M10.05 17.85C9.84 18.69 9.63 19.56 9.41 20.41C9.2 21.26 9.01 22.11 8.7 22.88C8.18 24.17 7.52 25.4 6.65 26.41C6.08 27.07 6.2 26.81 6.03 26.77C5.89 26.74 5.88 26.61 5.86 26.43C5.72 25.41 5.81 24.23 5.86 23.09C5.92 21.78 6.2 20.7 6.45 19.61C6.94 17.55 7.4 15.53 7.89 13.45C7.92 13.31 8.01 13.08 7.98 13.01C7.76 12.43 7.61 11.91 7.55 11.31C7.48 10.61 7.53 9.96 7.69 9.36C7.96 8.3 8.6 7.37 9.58 7.02C10.21 6.81 10.9 6.91 11.32 7.16C11.75 7.41 12.05 7.82 12.18 8.4C12.33 9.02 12.22 9.75 12.1 10.29C11.84 11.51 11.49 12.43 11.17 13.6C11.01 14.19 10.83 14.79 10.98 15.41C11.11 15.99 11.41 16.39 11.83 16.69C12.25 17 12.75 17.17 13.45 17.15C14.68 17.1 15.53 16.32 16.1 15.58C17.01 14.39 17.57 12.79 17.78 10.89C17.84 10.28 17.89 9.57 17.85 8.88C17.76 7.59 17.36 6.56 16.72 5.76C16.11 5 15.25 4.39 14.21 4.05C13.17 3.71 11.73 3.6 10.46 3.82C8.14 4.21 6.51 5.53 5.55 7.35C5.04 8.3 4.71 9.4 4.71 10.76C4.71 11.81 4.97 12.62 5.39 13.26C5.52 13.46 5.71 13.63 5.84 13.86C6.03 14.18 5.82 14.67 5.72 15.02C5.61 15.45 5.6 16.03 5.11 16.04C4.9 16.05 4.64 15.9 4.47 15.8C3.16 15.08 2.37 13.77 2.05 12.06C1.85 11.03 1.85 9.83 2.05 8.83C2.24 7.86 2.59 6.97 2.98 6.25C3.8 4.74 4.99 3.54 6.44 2.68C7.56 2.02 8.82 1.56 10.35 1.34C10.86 1.26 11.38 1.23 11.95 1.21C13.62 1.13 15.14 1.5 16.28 2.01C17.49 2.55 18.45 3.27 19.26 4.16C20.1 5.08 20.71 6.14 21.1 7.47C21.3 8.16 21.49 8.9 21.49 9.76C21.49 10.61 21.31 11.37 21.19 12.13C20.71 14.95 19.37 17.27 17.35 18.58C16.86 18.9 16.27 19.2 15.59 19.39C14.93 19.59 14.17 19.73 13.35 19.68C12.56 19.62 11.91 19.41 11.37 19.1C10.83 18.79 10.37 18.42 10.05 17.85Z" />
        </g>
    </symbol>
    <symbol id="instagram" viewBox="0 0 28 28">
        <g>
            <path d="M23.7 26.8L4.5 26.8C2.73 26.8 1.3 25.37 1.3 23.6L1.3 4.4C1.3 2.63 2.73 1.2 4.5 1.2L23.7 1.2C25.47 1.2 26.9 2.63 26.9 4.4L26.9 23.6C26.9 25.37 25.47 26.8 23.7 26.8ZM14.1 9.04C12.1 9.04 10.39 10.22 9.6 11.92L9.6 11.92C9.59 11.94 9.58 11.96 9.58 11.97C9.53 12.08 9.49 12.19 9.45 12.3C9.43 12.35 9.41 12.4 9.39 12.45C9.35 12.56 9.32 12.68 9.29 12.79C9.28 12.84 9.26 12.9 9.25 12.95C9.23 13.07 9.21 13.19 9.19 13.32C9.19 13.37 9.17 13.42 9.17 13.47C9.15 13.64 9.14 13.82 9.14 14C9.14 16.74 11.36 18.96 14.1 18.96C16.84 18.96 19.06 16.74 19.06 14C19.06 13.82 19.05 13.64 19.03 13.47C19.03 13.42 19.01 13.37 19.01 13.32C18.99 13.19 18.97 13.07 18.95 12.95C18.93 12.9 18.92 12.84 18.91 12.79C18.88 12.68 18.85 12.56 18.81 12.45C18.79 12.4 18.77 12.35 18.75 12.3C18.71 12.19 18.67 12.08 18.62 11.97C18.62 11.96 18.61 11.94 18.6 11.92L18.6 11.92C17.81 10.22 16.1 9.04 14.1 9.04ZM24.02 5.36C24.02 4.65 23.45 4.08 22.74 4.08L20.18 4.08C19.47 4.08 18.9 4.65 18.9 5.36L18.9 7.92C18.9 8.63 19.47 9.2 20.18 9.2L22.74 9.2C23.45 9.2 24.02 8.63 24.02 7.92L24.02 5.36ZM24.02 11.92L21.66 11.92C21.84 12.58 21.94 13.28 21.94 14C21.94 18.33 18.43 21.84 14.1 21.84C9.77 21.84 6.26 18.33 6.26 14C6.26 13.28 6.36 12.58 6.54 11.92L4.18 11.92L4.18 22.64C4.18 23.35 4.75 23.92 5.46 23.92L22.74 23.92C23.45 23.92 24.02 23.35 24.02 22.64L24.02 11.92Z" />
        </g>
    </symbol>
</svg>