<svg id="Layer_1" data-name="Layer 1" xmlns="http://www.w3.org/2000/svg" xmlns:xlink="http://www.w3.org/1999/xlink" viewBox="0 0 294.39 40.8"><defs><style>.cls-1,.cls-2{fill:#757575;}.cls-2,.cls-3,.cls-4,.cls-5{fill-rule:evenodd;}.cls-3{fill:#ffc517;}.cls-4{fill:#f57e02;}.cls-5{fill:url(#linear-gradient);}</style><linearGradient id="linear-gradient" x1="93.68" y1="-50.43" x2="109.45" y2="-50.43" gradientTransform="matrix(0.87, 0, 0, -0.87, -47.07, -7.9)" gradientUnits="userSpaceOnUse"><stop offset="0" stop-color="#e96f0b"/><stop offset="1" stop-color="#f37901"/></linearGradient></defs><title>GoogleAnalytics_AI</title><g id="g4792"><path id="path4349" class="cls-1" d="M185.09,22.46h0l4.12,10.81h-8Zm-1.54-3.6-9,23.67h3.34l2.32-6.43h10l2.32,6.43h3.34l-9-23.67Z" transform="translate(-7.76 -9.44)"/><path id="path4351" class="cls-1" d="M232.17,42.53h3.09V18.86h-3.09Z" transform="translate(-7.76 -9.44)"/><path id="path4353" class="cls-1" d="M200.53,28.63h0a6.55,6.55,0,0,1,5.14-2.83c4.12,0,6.18,2.83,6.18,7v10h-3.09V33.27c0-3.35-1.8-4.64-4.12-4.64-2.57,0-4.37,2.58-4.37,4.89v9h-3.09V26.06h3.09l.26,2.57Z" transform="translate(-7.76 -9.44)"/><path id="path4355" class="cls-1" d="M214.42,37.64c0-3.6,3.34-5.66,7.2-5.66,2.32,0,3.86.51,4.38,1v-.52a3.85,3.85,0,0,0-4.12-3.86A3.78,3.78,0,0,0,218,31l-2.83-1.29c.51-1.54,2.57-3.86,6.69-3.86,3.86,0,7.2,2.32,7.2,7v9.78h-2.83V40.21H226A6.21,6.21,0,0,1,220.59,43c-3.34,0-6.17-2.06-6.17-5.4M226,35.58a6.48,6.48,0,0,0-3.86-1c-3.09,0-4.38,1.8-4.38,3.09,0,1.8,1.8,2.57,3.35,2.57,2.31,0,4.89-2.06,4.89-4.63" transform="translate(-7.76 -9.44)"/><path id="path4357" class="cls-2" d="M239.63,49.73h0l3.6-8.49L236.8,26.32h3.09l4.89,11.32,4.89-11.32h3.08l-10,23.41Z" transform="translate(-7.76 -9.44)"/><path id="path4359" class="cls-2" d="M284.91,31.72a4.87,4.87,0,0,0-4.37-3.34c-2.57,0-4.89,2.31-4.89,5.66s2.32,5.66,4.89,5.66a5,5,0,0,0,4.37-3.09l2.58,1.54a7.56,7.56,0,0,1-6.95,4.63c-4.37,0-8-3.85-8-8.74,0-5.15,3.61-8.75,8-8.75a7.56,7.56,0,0,1,6.95,4.63l-2.58,1.8Z" transform="translate(-7.76 -9.44)"/><path id="path4361" class="cls-1" d="M296,43c4.11,0,6.17-2.31,6.17-5.14,0-6.18-9-3.86-9-7.46,0-1.29,1-2.06,2.83-2.06a5.13,5.13,0,0,1,4.37,2.06l1.8-1.81a9.59,9.59,0,0,0-6.43-3.08c-3.86,0-5.92,2.31-5.92,5.14,0,5.92,9.26,3.86,9.26,7,0,1.54-1,2.57-3.08,2.57s-3.09-1.28-4.12-2.57l-2.32,1.8C291.09,41,293.4,43,296,43Z" transform="translate(-7.76 -9.44)"/><path id="path4363" class="cls-1" d="M266.65,42.53h3.08V26.06h-3.08Z" transform="translate(-7.76 -9.44)"/><path id="path4365" class="cls-2" d="M267.93,18.09a2.06,2.06,0,1,1,0,4.11,2.22,2.22,0,0,1-2.06-2.06A2.21,2.21,0,0,1,267.93,18.09Z" transform="translate(-7.76 -9.44)"/><path id="path4367" class="cls-2" d="M263.56,40l.51,2.32H261c-2.83,0-4.12-2.06-4.12-5.15v-8h-3.09V26.06h3.09V21.17H260v4.89h3.6v3.09H260v8.49c0,2.31,1.8,2.31,3.6,2.31Z" transform="translate(-7.76 -9.44)"/><path id="path4369" class="cls-1" d="M73.94,28.38v3.86h9a7.8,7.8,0,0,1-2.06,4.63,9.26,9.26,0,0,1-7,2.83,9.83,9.83,0,0,1-9.77-10A9.83,9.83,0,0,1,80.63,22.2l2.58-2.57a13.39,13.39,0,0,0-9.27-3.86A14,14,0,0,0,60.05,29.41,13.94,13.94,0,0,0,73.94,43c4.12,0,7.21-1.28,9.52-3.86a12.11,12.11,0,0,0,3.35-8.74,6.32,6.32,0,0,0-.26-2.32H73.94Z" transform="translate(-7.76 -9.44)"/><path id="path4371" class="cls-1" d="M96.84,25.29A8.52,8.52,0,0,0,88.09,34a8.52,8.52,0,0,0,8.75,8.74A8.67,8.67,0,0,0,105.59,34,8.52,8.52,0,0,0,96.84,25.29Zm0,14.15A5.19,5.19,0,0,1,92,34a5.19,5.19,0,0,1,4.89-5.41c2.57,0,4.89,2.06,4.89,5.41S99.41,39.44,96.84,39.44Z" transform="translate(-7.76 -9.44)"/><path id="path4373" class="cls-1" d="M139,27.09h0A6.69,6.69,0,0,0,134.15,25a8.58,8.58,0,0,0-8.24,8.75,8.58,8.58,0,0,0,8.24,8.75,6,6,0,0,0,4.63-2.06H139v1.29c0,3.34-1.81,5.14-4.64,5.14A4.93,4.93,0,0,1,130,43.81l-3.34,1.29a8.48,8.48,0,0,0,7.71,5.15c4.64,0,8.49-2.58,8.49-9.27V25h-3.6v2.06Zm-4.38,12.35c-2.57,0-4.63-2.32-4.63-5.4s2.06-5.41,4.63-5.41S139.29,31,139.29,34,137.23,39.44,134.66,39.44Z" transform="translate(-7.76 -9.44)"/><path id="path4375" class="cls-1" d="M115.88,25.29A8.52,8.52,0,0,0,107.13,34a8.52,8.52,0,0,0,8.75,8.74A8.67,8.67,0,0,0,124.63,34C124.89,28.89,120.77,25.29,115.88,25.29Zm0,14.15A5.19,5.19,0,0,1,111,34a5.19,5.19,0,0,1,4.89-5.41c2.57,0,4.89,2.06,4.89,5.41S118.45,39.44,115.88,39.44Z" transform="translate(-7.76 -9.44)"/><path id="path4377" class="cls-1" d="M145.72,16h3.86V42.78h-3.86Z" transform="translate(-7.76 -9.44)"/><path id="path4379" class="cls-1" d="M160.13,39.44a5,5,0,0,1-4.37-2.57L167.59,32l-.51-1c-.77-2.06-3.09-5.66-7.46-5.66-4.63,0-8.23,3.6-8.23,8.75a8.66,8.66,0,0,0,8.74,8.74,9.37,9.37,0,0,0,7.46-3.85l-3.08-2.06a5,5,0,0,1-4.38,2.57Zm-.25-10.81a3.45,3.45,0,0,1,3.34,2.06l-8,3.35c0-3.86,2.58-5.41,4.64-5.41Z" transform="translate(-7.76 -9.44)"/></g><g id="g4787"><path id="path4381" class="cls-3" d="M25.85,49.44H11.05a3.29,3.29,0,0,1-3.29-3.29v-7.1a3.29,3.29,0,0,1,3.29-3.29H20.4V25.37a3.29,3.29,0,0,1,3.29-3.29H34.08V49.36H25.85Z" transform="translate(-7.76 -9.44)"/><path id="path4383" class="cls-4" d="M44.47,49.44H34.08V12.73a3.29,3.29,0,0,1,3.29-3.29h7.1a3.29,3.29,0,0,1,3.29,3.29V46.15A3.41,3.41,0,0,1,44.47,49.44Z" transform="translate(-7.76 -9.44)"/><path id="path4390" class="cls-5" d="M47.67,35.76V46.15a3.29,3.29,0,0,1-3.29,3.29H34V22.08Z" transform="translate(-7.76 -9.44)"/></g></svg>