<svg id="Layer_1" data-name="Layer 1" xmlns="http://www.w3.org/2000/svg" width="60" viewBox="0 0 243.16 371.33"><defs><style>.cls-1{fill:#fff;}</style></defs><title>MTNHausLogo_Full</title><path class="cls-1" d="M982.92,405.52,956.2,338.35l-35.12,91.94-29.51-32.16L879.49,419l-61-61V531.57H1030.4V358Zm36.25-20.38V496.65l-31.73-79.77Zm-2.66,135.2H833.85l48-83.05,42.57,42.57,54.33-54.34ZM893.64,417l31.44,34.28,31.33-82,17.87,44.91L924.46,464l-36.75-36.75Zm-20,12.09-43.93,76V385.14Z" transform="translate(-802.77 -338.35)"/><path class="cls-1" d="M802.77,566.29h34.72L847,601.77c1.74,7.62,2.07,9.37,3.16,16.33a171.18,171.18,0,0,1,3.59-18.83l8.71-33h34.83v76.85H874.07V598.73c.1-5.66.21-7.08.65-13.61-1.31,5.77-1.52,6.86-3.05,12.41l-12.73,45.61H840.86L829,599.92c-1.63-6.2-1.74-6.31-3.59-14.37.32,4.79.43,6,.43,10.35v47.24H802.77Z" transform="translate(-802.77 -338.35)"/><path class="cls-1" d="M902.37,566.18h63.25v19.05H946.13v57.91H921.86V585.23H902.37Z" transform="translate(-802.77 -338.35)"/><path class="cls-1" d="M971.69,566.29h25.8l17.3,29.06c4.25,7.95,5.45,10.23,9.37,18.83-.66-7.51-.77-9.14-1-17.74V566.29h22.76v76.85H1019.8l-15.57-26.56a207.73,207.73,0,0,1-10.66-20.25c.54,7,.65,8.71.76,15.68v31.13H971.69Z" transform="translate(-802.77 -338.35)"/><path class="cls-1" d="M825.68,709h-6V686.62h-11V709h-6V661h6v20.4h11V661h6Z" transform="translate(-802.77 -338.35)"/><path class="cls-1" d="M902.87,709h-6.26l-1.7-9.25H883.76L882.13,709h-6.19l10.34-48h6Zm-9-14.42L889.2,669.9l-4.42,24.68Z" transform="translate(-802.77 -338.35)"/><path class="cls-1" d="M971.66,661v32.37c0,5.91-.07,8.29-1.15,10.74-2.18,5.1-8,5.58-10.48,5.58-5.16,0-8.9-1.57-10.6-5.24-1-2.11-1.09-3.47-1.09-10.68V661h6v35c0,4.15,0,8.5,5.78,8.5,5.17,0,5.3-3.61,5.37-5.85.07-1.9.07-2.31.07-5.85V661Z" transform="translate(-802.77 -338.35)"/><path class="cls-1" d="M1022.53,692.4h5.72c0,5,0,5.58.06,6.46.07,1.23.48,5.71,5.79,5.71,1.9,0,6.05-.74,6.05-6,0-3.81-1.7-5.71-4.42-8.5l-6.53-6.66c-4.56-4.69-5.51-7.62-5.51-12,0-2.65,0-11.22,11.15-11.22,2.45,0,6.6.41,8.77,3.94,1.36,2.25,1.36,3.88,1.36,11h-5.23a58.12,58.12,0,0,0-.27-5.91c-.14-.89-.75-3.88-5-3.88-5,0-5,4.35-5,5.71,0,3.61,1.29,5,4.69,8.64l6,6.32c4,4.22,5.72,6.67,5.72,12.17,0,10.2-8,11.5-11.63,11.5-4.63,0-7.07-1.57-8-2.39-3-2.37-3.74-6-3.74-9.58Z" transform="translate(-802.77 -338.35)"/></svg>