<svg id="Standard" xmlns="http://www.w3.org/2000/svg" viewBox="0 0 1662.24 338.98"><defs><style>.cls-1{fill:#32373c;}</style></defs><title>WordPress_AI</title><g id="Logotype"><g id="Wordmark"><path class="cls-1" d="M1114.48,295.3h-67.42v7.15c21.09,0,24.48,4.52,24.48,31.26v48.21c0,26.74-3.39,31.64-24.48,31.64-16.19-2.26-27.12-10.92-42.18-27.5l-17.32-18.83c23.34-4.14,35.77-18.83,35.77-35.4,0-20.72-17.7-36.53-50.84-36.53H906.2v7.15c21.09,0,24.48,4.52,24.48,31.26v48.21c0,26.74-3.39,31.64-24.48,31.64v7.15h74.95v-7.15c-21.09,0-24.48-4.9-24.48-31.64V368.36h6.4l41.81,52.35h109.6c53.86,0,77.21-28.62,77.21-62.9S1168.34,295.3,1114.48,295.3ZM956.67,356.68V306.59h15.44c16.95,0,24.48,11.68,24.48,25.24,0,13.18-7.53,24.85-24.48,24.85ZM1115.61,409H1113c-13.56,0-15.44-3.39-15.44-20.72V306.59h18.08c39.17,0,46.33,28.63,46.33,50.85C1161.94,380.42,1154.78,409,1115.61,409Z" transform="translate(-169.49 -169.49)"/><path class="cls-1" d="M696.42,370.62l26-76.84c7.53-22.22,4.14-28.62-20-28.62v-7.53h70.8v7.53c-23.72,0-29.37,5.65-38.79,33.15L691.52,427.12h-4.89L648.21,309.23,609,427.12h-4.9l-41.8-128.81c-9-27.5-15.07-33.15-36.92-33.15v-7.53H609v7.53c-22.23,0-28.25,5.27-20.34,28.62l25.23,76.84,38-113h7.16Z" transform="translate(-169.49 -169.49)"/><path class="cls-1" d="M824.47,425.61c-41.43,0-75.33-30.51-75.33-67.8,0-36.9,33.9-67.42,75.33-67.42s75.33,30.52,75.33,67.42C899.8,395.1,865.9,425.61,824.47,425.61Zm0-123.53c-34.65,0-46.7,31.25-46.7,55.73,0,24.87,12.05,55.75,46.7,55.75,35,0,47.08-30.88,47.08-55.75C871.55,333.33,859.5,302.08,824.47,302.08Z" transform="translate(-169.49 -169.49)"/><path class="cls-1" d="M1284.71,413.18v7.53h-86.24v-7.53c25.23,0,29.75-6.4,29.75-44.07V308.85c0-37.66-4.52-43.69-29.75-43.69v-7.53h78c38.79,0,60.26,20,60.26,46.7,0,26-21.47,46.33-60.26,46.33H1255v18.45C1255,406.78,1259.48,413.18,1284.71,413.18Zm-8.28-142H1255v65.53h21.47c21.09,0,30.88-14.68,30.88-32.39C1307.31,286.26,1297.52,271.19,1276.43,271.19Z" transform="translate(-169.49 -169.49)"/><path class="cls-1" d="M1595.44,385.31l-1.88,6.78c-3.39,12.43-7.54,17-34.28,17H1554c-19.59,0-23-4.52-23-31.26V360.46c29.38,0,31.64,2.63,31.64,22.22h7.16V326.55h-7.16c0,19.59-2.26,22.22-31.64,22.22V306.59h20.72c26.74,0,30.88,4.52,34.27,17l1.89,7.16h6l-2.63-35.4H1480.56v7.15c21.09,0,24.48,4.52,24.48,31.26v48.21c0,24.47-2.88,30.63-19.51,31.51-15.8-2.42-26.65-11-41.5-27.37l-17.32-18.83c23.35-4.14,35.78-18.83,35.78-35.4,0-20.72-17.7-36.53-50.85-36.53h-66.28v7.15c21.08,0,24.47,4.52,24.47,31.26v48.21c0,26.74-3.39,31.64-24.47,31.64v7.15h75v-7.15c-21.09,0-24.48-4.9-24.48-31.64V368.36h6.4l41.8,52.35h154.8l2.26-35.4Zm-199.61-28.63V306.59h15.44c16.94,0,24.48,11.68,24.48,25.24,0,13.18-7.54,24.85-24.48,24.85Z" transform="translate(-169.49 -169.49)"/><path class="cls-1" d="M1671.9,425.61c-15.07,0-28.26-7.91-33.9-12.81a27,27,0,0,0-6,12.81h-7.16v-52h7.54c3,24.85,20.33,39.54,42.56,39.54,12,0,21.84-6.78,21.84-18.08,0-9.79-8.66-17.32-24.1-24.48l-21.47-10.16c-15.07-7.17-26.37-19.59-26.37-36.17,0-18.07,17-33.51,40.31-33.51,12.43,0,23,4.52,29.37,9.79,1.89-1.51,3.77-5.66,4.9-10.18h7.15v44.45h-7.9c-2.64-17.7-12.43-32.39-32.39-32.39-10.55,0-20.35,6-20.35,15.44,0,9.79,7.91,15.07,26,23.35l20.71,10.17c18.08,8.66,25.23,22.6,25.23,33.9C1717.84,409,1697.13,425.61,1671.9,425.61Z" transform="translate(-169.49 -169.49)"/><path class="cls-1" d="M1785.78,425.61c-15.06,0-28.25-7.91-33.9-12.81a27.11,27.11,0,0,0-6,12.81h-7.16v-52h7.53c3,24.85,20.34,39.54,42.56,39.54,12,0,21.85-6.78,21.85-18.08,0-9.79-8.67-17.32-24.11-24.48l-21.46-10.16c-15.07-7.17-26.37-19.59-26.37-36.17,0-18.07,17-33.51,40.3-33.51,12.43,0,23,4.52,29.38,9.79,1.88-1.51,3.76-5.66,4.89-10.18h7.16v44.45h-7.91c-2.64-17.7-12.43-32.39-32.39-32.39-10.54,0-20.34,6-20.34,15.44,0,9.79,7.91,15.07,26,23.35l20.71,10.17c18.09,8.66,25.24,22.6,25.24,33.9C1831.73,409,1811,425.61,1785.78,425.61Z" transform="translate(-169.49 -169.49)"/></g><g id="W_Mark" data-name="W Mark"><path class="cls-1" d="M339,179.66a158.58,158.58,0,0,1,89.07,27.2,160.5,160.5,0,0,1,43.05,43,159,159,0,0,1,0,178.14,160.11,160.11,0,0,1-43.05,43.05,159.08,159.08,0,0,1-178.14,0A159.76,159.76,0,0,1,192.18,401a159.17,159.17,0,0,1,14.68-151.09A159.69,159.69,0,0,1,277,192.18a158.25,158.25,0,0,1,62-12.52m0-10.17A169.49,169.49,0,1,0,508.47,339,169.5,169.5,0,0,0,339,169.49Z" transform="translate(-169.49 -169.49)"/><path class="cls-1" d="M197.74,339a141.25,141.25,0,0,0,79.61,127.11L210,281.5A140.62,140.62,0,0,0,197.74,339Zm236.59-7.13c0-17.46-6.27-29.54-11.64-39-7.16-11.64-13.87-21.48-13.87-33.12,0-13,9.84-25.07,23.71-25.07.63,0,1.22.07,1.83.11A141.21,141.21,0,0,0,221,261.4c3.32.1,6.44.17,9.09.17,14.77,0,37.65-1.79,37.65-1.79,7.61-.45,8.5,10.74.9,11.64,0,0-7.66.89-16.17,1.34l51.44,153,30.91-92.7-22-60.29c-7.61-.45-14.82-1.34-14.82-1.34-7.61-.45-6.72-12.09.9-11.64,0,0,23.32,1.79,37.2,1.79,14.77,0,37.64-1.79,37.64-1.79,7.62-.45,8.51,10.74.9,11.64,0,0-7.66.89-16.16,1.34l51,151.82,14.57-46.17C430.54,358.24,434.33,343.94,434.33,331.85Zm-92.87,19.48L299.08,474.47a141.23,141.23,0,0,0,86.81-2.25,12.37,12.37,0,0,1-1-2Zm121.47-80.11a109.52,109.52,0,0,1,.95,14.52c0,14.33-2.69,30.44-10.75,50.59L410,461.06a141.26,141.26,0,0,0,52.93-189.84Z" transform="translate(-169.49 -169.49)"/></g></g></svg>